<?xml version="1.0" encoding="UTF-8"?>
<svg id="Calque_1" xmlns="http://www.w3.org/2000/svg" version="1.1" viewBox="0 0 449.46 325.35">
  <!-- Generator: Adobe Illustrator 29.3.1, SVG Export Plug-In . SVG Version: 2.1.0 Build 151)  -->
  <defs>
    <style>
      .st0 {
        fill: #1b2140;
      }

      .st1 {
        fill: #9ac21c;
      }
    </style>
  </defs>
  <g>
    <path class="st0" d="M38.1,233.3c10.62,0,16.08,6.06,16.08,6.06l-4.86,7.92s-4.8-4.38-10.74-4.38c-8.22,0-12.12,6.06-12.12,12.24s4.2,12.9,12.12,12.9c6.48,0,11.4-5.28,11.4-5.28l5.4,7.68s-6.06,7.2-17.28,7.2c-13.44,0-22.5-9.54-22.5-22.26s9.6-22.08,22.5-22.08Z"/>
    <path class="st0" d="M85.02,267.92h-13.38l-2.58,9h-10.8l14.58-42.9h11.04l14.58,42.9h-10.8l-2.64-9ZM78.3,243.8s-.96,4.68-1.74,7.38l-2.46,8.34h8.46l-2.4-8.34c-.78-2.7-1.74-7.38-1.74-7.38h-.12Z"/>
    <path class="st0" d="M105.06,234.02h10.62l11.88,20.04c1.68,2.82,3.6,7.32,3.6,7.32h.12s-.48-4.62-.48-7.32v-20.04h10.5v42.9h-10.56l-11.94-19.98c-1.68-2.82-3.6-7.32-3.6-7.32h-.12s.48,4.62.48,7.32v19.98h-10.5v-42.9Z"/>
    <path class="st0" d="M153.18,234.02h10.5v42.9h-10.5v-42.9Z"/>
    <path class="st0" d="M195.12,233.3c10.62,0,16.08,6.06,16.08,6.06l-4.86,7.92s-4.8-4.38-10.74-4.38c-8.22,0-12.12,6.06-12.12,12.24s4.2,12.9,12.12,12.9c6.48,0,11.4-5.28,11.4-5.28l5.4,7.68s-6.06,7.2-17.28,7.2c-13.44,0-22.5-9.54-22.5-22.26s9.6-22.08,22.5-22.08Z"/>
    <path class="st0" d="M242.03,267.92h-13.38l-2.58,9h-10.8l14.58-42.9h11.04l14.58,42.9h-10.8l-2.64-9ZM235.31,243.8s-.96,4.68-1.74,7.38l-2.46,8.34h8.46l-2.4-8.34c-.78-2.7-1.74-7.38-1.74-7.38h-.12Z"/>
    <path class="st0" d="M264.29,234.02h11.4l6.24,18.12c.96,2.76,2.16,7.08,2.16,7.08h.12s1.2-4.32,2.16-7.08l6.24-18.12h11.4l3.48,42.9h-10.5l-1.32-19.32c-.24-3.24,0-7.2,0-7.2h-.12s-1.44,4.5-2.4,7.2l-4.5,12.42h-9l-4.5-12.42c-.96-2.7-2.4-7.2-2.4-7.2h-.12s.24,3.96,0,7.2l-1.32,19.32h-10.56l3.54-42.9Z"/>
    <path class="st0" d="M318.05,234.02h17.82c8.34,0,13.98,6.12,13.98,14.76s-5.64,14.88-13.98,14.88h-7.32v13.26h-10.5v-42.9ZM333.71,254.66c3.66,0,5.46-2.46,5.46-5.88s-1.8-5.76-5.28-5.76h-5.34v11.64h5.16Z"/>
    <path class="st0" d="M357.29,234.02h10.5v27.12c0,4.5,2.94,6.9,7.44,6.9s7.44-2.4,7.44-6.9v-27.12h10.5v27.12c0,9.66-7.08,16.5-17.88,16.5s-18-6.84-18-16.5v-27.12Z"/>
    <path class="st0" d="M406.79,263.54s4.86,4.44,10.26,4.44c2.16,0,4.5-.84,4.5-3.42,0-5.1-19.32-4.92-19.32-18.12,0-7.92,6.66-13.14,15.18-13.14,9.24,0,13.8,4.86,13.8,4.86l-4.44,8.58s-4.32-3.78-9.48-3.78c-2.16,0-4.56.96-4.56,3.36,0,5.4,19.32,4.44,19.32,18,0,7.14-5.46,13.32-15.12,13.32s-15.66-6.12-15.66-6.12l5.52-7.98Z"/>
  </g>
  <g>
    <path class="st1" d="M66.19,291.23h1.48v9.3h4.74v1.29h-6.22v-10.59Z"/>
    <path class="st1" d="M73.74,291.05h1.41l-.98,2.92h-1.08l.65-2.92Z"/>
    <path class="st1" d="M77.8,291.23h6.15v1.29h-4.67v3.32h3.79v1.29h-3.79v3.4h4.92v1.29h-6.4v-10.59ZM81.49,288.59h1.56l-1.44,1.91h-1.22l1.1-1.91Z"/>
    <path class="st1" d="M87.15,291.23h3.51c3.24,0,5.37,1.94,5.37,5.28s-2.13,5.31-5.37,5.31h-3.51v-10.59ZM90.55,300.53c2.38,0,3.94-1.41,3.94-4.02s-1.57-3.99-3.94-3.99h-1.92v8.01h1.92Z"/>
    <path class="st1" d="M98.85,291.23h1.48v6.84c0,1.62,1.05,2.57,2.67,2.57s2.7-.95,2.7-2.6v-6.81h1.48v6.84c0,2.36-1.69,3.93-4.17,3.93s-4.17-1.57-4.17-3.93v-6.84Z"/>
    <path class="st1" d="M115.33,291.05c2.55,0,3.85,1.39,3.85,1.39l-.73,1.11s-1.23-1.16-3.06-1.16c-2.37,0-3.91,1.8-3.91,4.05s1.57,4.19,3.93,4.19c2,0,3.27-1.38,3.27-1.38l.79,1.06s-1.46,1.68-4.11,1.68c-3.18,0-5.41-2.43-5.41-5.53s2.31-5.42,5.38-5.42Z"/>
    <path class="st1" d="M127.5,298.77h-3.99l-1.05,3.04h-1.53l3.81-10.59h1.56l3.81,10.59h-1.54l-1.06-3.04ZM125.5,292.68s-.24.96-.42,1.5l-1.19,3.36h3.21l-1.17-3.36c-.18-.54-.41-1.5-.41-1.5h-.03Z"/>
    <path class="st1" d="M134.04,292.52h-3.63v-1.29h8.74v1.29h-3.63v9.3h-1.48v-9.3Z"/>
    <path class="st1" d="M141.42,291.23h1.48v10.59h-1.48v-10.59Z"/>
    <path class="st1" d="M151.25,291.05c3.06,0,5.43,2.35,5.43,5.4s-2.37,5.55-5.43,5.55-5.44-2.43-5.44-5.55,2.38-5.4,5.44-5.4ZM151.25,300.63c2.16,0,3.9-1.8,3.9-4.19s-1.74-4.05-3.9-4.05-3.91,1.74-3.91,4.05,1.75,4.19,3.91,4.19Z"/>
    <path class="st1" d="M159.6,291.23h1.47l4.71,6.88c.39.57.89,1.53.89,1.53h.03s-.1-.95-.1-1.53v-6.88h1.48v10.59h-1.46l-4.72-6.87c-.39-.58-.88-1.54-.88-1.54h-.03s.1.95.1,1.54v6.87h-1.48v-10.59Z"/>
    <path class="st1" d="M180.97,291.05c2.55,0,3.85,1.39,3.85,1.39l-.73,1.11s-1.23-1.16-3.06-1.16c-2.37,0-3.91,1.8-3.91,4.05s1.57,4.19,3.93,4.19c2,0,3.27-1.38,3.27-1.38l.79,1.06s-1.46,1.68-4.11,1.68c-3.18,0-5.42-2.43-5.42-5.53s2.31-5.42,5.39-5.42Z"/>
    <path class="st1" d="M193.13,298.77h-3.99l-1.05,3.04h-1.53l3.81-10.59h1.56l3.81,10.59h-1.54l-1.06-3.04ZM191.14,292.68s-.24.96-.42,1.5l-1.19,3.36h3.21l-1.17-3.36c-.18-.54-.41-1.5-.41-1.5h-.03Z"/>
    <path class="st1" d="M198.05,291.23h1.47l4.71,6.88c.39.57.88,1.53.88,1.53h.03s-.11-.95-.11-1.53v-6.88h1.49v10.59h-1.46l-4.72-6.87c-.39-.58-.88-1.54-.88-1.54h-.03s.1.95.1,1.54v6.87h-1.48v-10.59Z"/>
    <path class="st1" d="M210.16,291.23h1.48v10.59h-1.48v-10.59Z"/>
    <path class="st1" d="M215.28,291.23h1.47l4.71,6.88c.39.57.89,1.53.89,1.53h.03s-.1-.95-.1-1.53v-6.88h1.49v10.59h-1.46l-4.73-6.87c-.39-.58-.88-1.54-.88-1.54h-.03s.1.95.1,1.54v6.87h-1.48v-10.59Z"/>
    <path class="st1" d="M227.38,291.23h6.15v1.29h-4.67v3.32h3.79v1.29h-3.79v3.4h4.92v1.29h-6.41v-10.59Z"/>
    <path class="st1" d="M246.58,298.77h-3.99l-1.05,3.04h-1.53l3.81-10.59h1.56l3.81,10.59h-1.54l-1.07-3.04ZM242.59,288.59h1.56l1.09,1.91h-1.23l-1.42-1.91ZM244.58,292.68s-.24.96-.42,1.5l-1.18,3.36h3.21l-1.17-3.36c-.18-.54-.41-1.5-.41-1.5h-.03Z"/>
    <path class="st1" d="M256.1,291.23h3.87c1.94,0,3.33,1.31,3.33,3.32s-1.39,3.36-3.33,3.36h-2.38v3.92h-1.48v-10.59ZM259.73,296.61c1.28,0,2.06-.79,2.06-2.07s-.78-2.03-2.04-2.03h-2.16v4.09h2.14Z"/>
    <path class="st1" d="M270.68,291.05c3.06,0,5.43,2.35,5.43,5.4s-2.37,5.55-5.43,5.55-5.45-2.43-5.45-5.55,2.38-5.4,5.45-5.4ZM270.68,300.63c2.16,0,3.9-1.8,3.9-4.19s-1.74-4.05-3.9-4.05-3.92,1.74-3.92,4.05,1.75,4.19,3.92,4.19Z"/>
    <path class="st1" d="M279.02,291.23h3.24c1.11,0,1.58.09,1.98.24,1.08.41,1.78,1.47,1.78,2.87s-.75,2.49-1.9,2.86v.03s.12.13.31.48l2.25,4.11h-1.68l-2.24-4.21h-2.26v4.21h-1.48v-10.59ZM282.64,296.31c1.16,0,1.88-.73,1.88-1.92,0-.78-.3-1.33-.84-1.63-.29-.15-.63-.24-1.46-.24h-1.71v3.79h2.13Z"/>
    <path class="st1" d="M291.65,292.52h-3.63v-1.29h8.74v1.29h-3.63v9.3h-1.48v-9.3Z"/>
    <path class="st1" d="M299.03,291.23h6.15v1.29h-4.67v3.32h3.79v1.29h-3.79v3.4h4.92v1.29h-6.4v-10.59ZM302.72,288.59h1.56l-1.44,1.91h-1.21l1.09-1.91Z"/>
    <path class="st1" d="M308.38,291.23h6.15v1.29h-4.67v3.32h3.79v1.29h-3.79v3.4h4.92v1.29h-6.41v-10.59Z"/>
    <path class="st1" d="M322.33,291.23h3.51c3.24,0,5.37,1.94,5.37,5.28s-2.13,5.31-5.37,5.31h-3.51v-10.59ZM325.73,300.53c2.38,0,3.95-1.41,3.95-4.02s-1.58-3.99-3.95-3.99h-1.92v8.01h1.92Z"/>
    <path class="st1" d="M334.18,291.23h6.15v1.29h-4.67v3.32h3.79v1.29h-3.79v3.4h4.92v1.29h-6.41v-10.59Z"/>
    <path class="st1" d="M352.79,291.05c2.55,0,3.86,1.39,3.86,1.39l-.74,1.11s-1.23-1.16-3.06-1.16c-2.37,0-3.92,1.8-3.92,4.05s1.58,4.19,3.93,4.19c2,0,3.27-1.38,3.27-1.38l.79,1.06s-1.45,1.68-4.11,1.68c-3.18,0-5.42-2.43-5.42-5.53s2.31-5.42,5.38-5.42Z"/>
    <path class="st1" d="M359.71,291.23h1.49v9.3h4.74v1.29h-6.23v-10.59Z"/>
    <path class="st1" d="M368.39,291.23h1.48v10.59h-1.48v-10.59Z"/>
    <path class="st1" d="M378.17,291.05c2.55,0,3.86,1.39,3.86,1.39l-.74,1.11s-1.23-1.16-3.06-1.16c-2.37,0-3.92,1.8-3.92,4.05s1.58,4.19,3.93,4.19c2,0,3.27-1.38,3.27-1.38l.79,1.06s-1.45,1.68-4.11,1.68c-3.18,0-5.42-2.43-5.42-5.53s2.31-5.42,5.38-5.42Z"/>
  </g>
  <g>
    <path class="st0" d="M352.11,212.65c2.95,0,4.45,1.6,4.45,1.6l-.65.9s-1.44-1.37-3.76-1.37c-2.9,0-4.97,2.25-4.97,5.17s2.07,5.36,5.01,5.36c2.5,0,4.01-1.65,4.01-1.65l.7.86s-1.69,1.92-4.73,1.92c-3.66,0-6.26-2.87-6.26-6.47s2.67-6.31,6.21-6.31Z"/>
    <path class="st0" d="M364.87,212.65c3.5,0,6.29,2.76,6.29,6.31s-2.79,6.47-6.29,6.47-6.29-2.85-6.29-6.47,2.79-6.31,6.29-6.31ZM364.87,224.3c2.78,0,5.03-2.32,5.03-5.34s-2.25-5.19-5.03-5.19-5.03,2.23-5.03,5.19,2.23,5.34,5.03,5.34Z"/>
    <path class="st0" d="M373.91,212.86h1.18l6.31,8.89c.42.62,1.02,1.67,1.02,1.67h.04s-.11-1.02-.11-1.67v-8.89h1.21v12.36h-1.18l-6.31-8.89c-.42-.62-1.02-1.67-1.02-1.67h-.04s.11,1.02.11,1.67v8.89h-1.21v-12.36Z"/>
    <path class="st0" d="M387.15,212.86h1.18l6.31,8.89c.42.62,1.02,1.67,1.02,1.67h.04s-.11-1.02-.11-1.67v-8.89h1.21v12.36h-1.18l-6.31-8.89c-.42-.62-1.02-1.67-1.02-1.67h-.04s.11,1.02.11,1.67v8.89h-1.21v-12.36Z"/>
    <path class="st0" d="M400.39,212.86h6.96v1.09h-5.75v4.5h4.69v1.09h-4.69v4.59h6.06v1.09h-7.28v-12.36Z"/>
    <path class="st0" d="M415.7,212.65c2.95,0,4.45,1.6,4.45,1.6l-.65.9s-1.44-1.37-3.76-1.37c-2.9,0-4.97,2.25-4.97,5.17s2.07,5.36,5.01,5.36c2.5,0,4.01-1.65,4.01-1.65l.7.86s-1.69,1.92-4.73,1.92c-3.66,0-6.26-2.87-6.26-6.47s2.67-6.31,6.21-6.31Z"/>
    <path class="st0" d="M425.9,213.95h-4.45v-1.09h10.09v1.09h-4.43v11.27h-1.21v-11.27Z"/>
  </g>
  <rect class="st1" x="352.12" y="104" width="16.06" height="16.06"/>
  <rect class="st1" x="335.41" y="206.08" width="8.03" height="8.03"/>
  <rect class="st0" x="368.18" y="94.45" width="9.54" height="9.54"/>
  <rect class="st1" x="49.38" y="171.89" width="16.06" height="16.06" transform="translate(237.32 122.51) rotate(90)"/>
  <rect class="st0" x="73.46" y="195.97" width="9.54" height="9.54" transform="translate(278.98 122.51) rotate(90)"/>
  <rect class="st0" x="68.69" y="205.52" width="4.77" height="4.77" transform="translate(278.98 136.83) rotate(90)"/>
  <g>
    <path class="st0" d="M300.46,38.5c-1.83,6.26-7.86,7.23-9.33,13.77-5.93,26.27-7.52,28.67,2.96,32.52l2.3.96c.35,1-6.61,3.14-11.86,1.08-9.58-3.75-10.21-7.74-6.9-18.07,2.65-8.28,2.52-9.96,1.3-18.19-2.38-16.16-1.52-22.77-1.52-22.77-.05,0-1.04.09-2.87,6.71-1.76,6.38,3.15,8.45-1.69,27.49-2.39,9.42-.4,12.36-5.37,12.36-9.04,0-5.89-10.83-10.23-18.56-1.08-1.93-2.21-4.21-3.21-6.31-1.89-3.99-.95-8.74,2.32-11.71,5.03-4.58,13.04-11.44,21.37-16.87,13.79-8.99,22.68-7.54,22.68-7.54,0,0-3.19,4.09-1.4,12.62.57,2.72,3.28,6.26,1.45,12.51Z"/>
    <path class="st0" d="M312.29,48.69c-.21,2.46-.02,7.3-6.02,7.88v10.86h-2.5v-10.86c-6-.58-5.82-5.42-6.02-7.88-.22-2.61,7.27-2.51,7.27-2.51,0,0,7.49-.1,7.27,2.51Z"/>
    <path class="st0" d="M355.99,49.49c-.99,2.1-2.12,4.38-3.21,6.31-4.33,7.73-1.19,18.56-10.22,18.56-4.97,0-2.98-2.94-5.38-12.36-4.83-19.04.08-21.11-1.69-27.49-1.83-6.62-2.82-6.71-2.87-6.71,0,0,.87,6.61-1.52,22.77-1.21,8.22-1.35,9.91,1.31,18.19,3.31,10.33,2.68,14.32-6.9,18.07-5.26,2.06-12.22-.08-11.87-1.08l2.31-.96c10.48-3.85,8.88-6.25,2.96-32.52-1.48-6.54-7.51-7.51-9.34-13.77-1.83-6.25.88-9.79,1.45-12.51,1.79-8.53-1.4-12.62-1.4-12.62,0,0,8.9-1.45,22.69,7.54,8.33,5.43,16.33,12.29,21.37,16.87,3.26,2.97,4.2,7.71,2.31,11.71Z"/>
    <polygon class="st1" points="298.78 155.51 298.78 205.52 315.09 205.52 318.43 154.3 333.38 120.05 309.66 152.54 298.78 155.51"/>
    <path class="st1" d="M184.64,146.73c-1.94,1.97-4.17,3.7-6.68,5.21-4.35,2.61-8.05,4.89-11.09,6.8l-10.65,46.78h16.31l18.93-45.73s3.19-2.19,9.4-6.11c-7.52-3.05-14.19-6.07-15.48-6.66l-.75-.29Z"/>
    <path class="st0" d="M261.42,75.8s-41.35-.08-72.21-3.19c-3.9-.39-7.58-.58-11.05-.58-13.42,0-23.68,2.87-31.05,8.13-2.82,2.01-6.34,4.94-10.53,12.18-3.09,5.33-5.35,10.75-6.99,16.07-.25.76-.48,1.5-.72,2.24.07-.18.14-.35.21-.53-7.18,25.27-.53,47.96-.53,47.96l-10.82,47.43h16.31l18.93-45.73s7.35-5.05,21.55-13.58c4.25-2.55,8.35-6.37,11.04-12.95,5.51-13.47,5.24-21.81,5.24-21.81,0,0,1.52,6.78.92,15.76-.68,10.11-3.57,13.72-3.57,13.72,0,0,23.47,10.72,33.28,12.74,1.29.27,3.07.37,5.04.37,6.46,0,14.98-1.09,14.98-1.09l.18-9.48,1.32-17.82,4.89,18.32,5.13,61.54h16.31l.87-48.54s7.44-25.03,9.13-36.69c1.2-8.23-21.69-33.35-17.88-44.48Z"/>
    <path class="st0" d="M100.14,132.19c-1.64.1,4.13,2.03,2.57,2.25-4.65.65-13.88,1.5-16.7,11.84,0,0,3.08-2.05,3.9-.04,0,0-6.64,5.63-5.23,11.15,0,0,1.91-2.12,2.23-.85,1.58,6.3,6.45,9.34,11.77,10.2.6.1-1.33,1.88-.73,1.91,5.73.21,8.4-1.91,10.93-2.76,3.48-1.17,1.2,3.42,1.2,3.42,3.67-1.42,6.92-3.01,9.8-4.72.02-.01.04-.02.06-.03.22-.13.6-2.05.95-3.77l.72-2.72c.73-.46-4.52-10.28,7.23-47.41-1.58,3.88-4.43,9.25-9.3,13.82-4.27,4-10.45,7.17-19.42,7.72Z"/>
  </g>
</svg>